<svg width="16" height="16" viewBox="0 0 16 16" fill="none" xmlns="http://www.w3.org/2000/svg">
<path d="M14 10.9997C14 11.253 13.86 11.473 13.6467 11.5863L8.38 14.5463C8.27333 14.6263 8.14 14.6663 8 14.6663C7.86 14.6663 7.72667 14.6263 7.62 14.5463L2.35333 11.5863C2.14 11.473 2 11.253 2 10.9997V4.99967C2 4.74634 2.14 4.52634 2.35333 4.41301L7.62 1.45301C7.72667 1.37301 7.86 1.33301 8 1.33301C8.14 1.33301 8.27333 1.37301 8.38 1.45301L13.6467 4.41301C13.86 4.52634 14 4.74634 14 4.99967V10.9997ZM8 2.76634L4.02667 4.99967L8 7.23301L11.9733 4.99967L8 2.76634ZM3.33333 10.6063L7.33333 12.8597V8.38634L3.33333 6.13967V10.6063ZM12.6667 10.6063V6.13967L8.66667 8.38634V12.8597L12.6667 10.6063Z" fill="#91B859"/>
</svg>
