<svg width="16" height="16" viewBox="0 0 16 16" fill="none" xmlns="http://www.w3.org/2000/svg">
<path d="M8.00065 9.99967C8.54065 9.99967 9.00065 9.79967 9.40732 9.40634C9.80065 8.99967 10.0007 8.53967 10.0007 7.99967C10.0007 7.45967 9.80065 6.99967 9.40732 6.59301C9.00065 6.19968 8.54065 5.99967 8.00065 5.99967C7.46065 5.99967 7.00065 6.19968 6.59398 6.59301C6.20065 6.99967 6.00065 7.45967 6.00065 7.99967C6.00065 8.53967 6.20065 8.99967 6.59398 9.40634C7.00065 9.79967 7.46065 9.99967 8.00065 9.99967ZM8.00065 1.33301C9.83398 1.33301 11.4007 1.99967 12.7007 3.29967C14.0007 4.59967 14.6673 6.16634 14.6673 7.99967V8.96634C14.6673 9.63301 14.434 10.1997 14.0007 10.6663C13.534 11.113 13.0007 11.333 12.334 11.333C11.534 11.333 10.874 10.9997 10.374 10.333C9.70732 10.9997 8.92065 11.333 8.00065 11.333C7.08732 11.333 6.30065 10.9997 5.64065 10.3597C5.00065 9.69967 4.66732 8.91967 4.66732 7.99967C4.66732 7.08634 5.00065 6.29967 5.64065 5.63967C6.30065 4.99967 7.08732 4.66634 8.00065 4.66634C8.92065 4.66634 9.70065 4.99967 10.3607 5.63967C11.0007 6.29967 11.334 7.08634 11.334 7.99967V8.96634C11.334 9.23967 11.4407 9.47967 11.6407 9.68634C11.8407 9.89301 12.074 9.99967 12.334 9.99967C12.614 9.99967 12.8473 9.89301 13.0473 9.68634C13.2473 9.47967 13.334 9.23967 13.334 8.96634V7.99967C13.334 6.53967 12.8207 5.28634 11.7673 4.23301C10.714 3.17967 9.46065 2.66634 8.00065 2.66634C6.54065 2.66634 5.28732 3.17967 4.23398 4.23301C3.18065 5.28634 2.66732 6.53967 2.66732 7.99967C2.66732 9.45967 3.18065 10.713 4.23398 11.7663C5.28732 12.8197 6.54065 13.333 8.00065 13.333H11.334V14.6663H8.00065C6.16732 14.6663 4.60065 13.9997 3.30065 12.6997C2.00065 11.3997 1.33398 9.83301 1.33398 7.99967C1.33398 6.16634 2.00065 4.59967 3.30065 3.29967C4.60065 1.99967 6.16732 1.33301 8.00065 1.33301Z" fill="#C792EA"/>
</svg>
