<svg width="16" height="16" viewBox="0 0 16 16" fill="none" xmlns="http://www.w3.org/2000/svg">
<path d="M13.334 2.66699C14.074 2.66699 14.6673 3.26033 14.6673 4.00033V12.0003C14.6673 12.7403 14.074 13.3337 13.334 13.3337H2.66732C1.92732 13.3337 1.33398 12.7403 1.33398 12.0003V4.00033C1.33398 3.26033 1.92732 2.66699 2.66732 2.66699H13.334ZM5.66732 10.0003V6.00033H4.83398V8.33366L3.16732 6.00033H2.33398V10.0003H3.16732V7.66699L4.86732 10.0003H5.66732ZM9.00065 6.84033V6.00033H6.33398V10.0003H9.00065V9.16699H7.33398V8.42699H9.00065V7.58699H7.33398V6.84033H9.00065ZM13.6673 9.33366V6.00033H12.834V9.00033H12.0873V6.66699H11.254V9.00033H10.5007V6.00033H9.66732V9.33366C9.66732 9.51047 9.73756 9.68004 9.86258 9.80506C9.9876 9.93009 10.1572 10.0003 10.334 10.0003H13.0007C13.1775 10.0003 13.347 9.93009 13.4721 9.80506C13.5971 9.68004 13.6673 9.51047 13.6673 9.33366Z" fill="#C792EA"/>
</svg>
