<?xml version="1.0" encoding="UTF-8" standalone="no"?>
<svg
   viewBox="0 0 24 24"
   width="24"
   height="24"
   version="1.1"
   id="svg864"
   sodipodi:docname="deobfuscated.svg"
   inkscape:version="1.2.2 (b0a8486541, 2022-12-01)"
   xmlns:inkscape="http://www.inkscape.org/namespaces/inkscape"
   xmlns:sodipodi="http://sodipodi.sourceforge.net/DTD/sodipodi-0.dtd"
   xmlns="http://www.w3.org/2000/svg"
   xmlns:svg="http://www.w3.org/2000/svg">
  <defs
     id="defs868" />
  <sodipodi:namedview
     id="namedview866"
     pagecolor="#ffffff"
     bordercolor="#000000"
     borderopacity="0.25"
     inkscape:showpageshadow="2"
     inkscape:pageopacity="0.0"
     inkscape:pagecheckerboard="0"
     inkscape:deskcolor="#d1d1d1"
     showgrid="false"
     inkscape:zoom="34.458333"
     inkscape:cx="11.98549"
     inkscape:cy="12.01451"
     inkscape:window-width="2560"
     inkscape:window-height="1007"
     inkscape:window-x="0"
     inkscape:window-y="0"
     inkscape:window-maximized="1"
     inkscape:current-layer="svg864" />
  <path
     d="M17.28 9.28a.75.75 0 0 0-1.06-1.06l-5.97 5.97-2.47-2.47a.75.75 0 0 0-1.06 1.06l3 3a.75.75 0 0 0 1.06 0l6.5-6.5Z"
     id="path860" />
  <path
     d="M12 1c6.075 0 11 4.925 11 11s-4.925 11-11 11S1 18.075 1 12 5.925 1 12 1ZM2.5 12a9.5 9.5 0 0 0 9.5 9.5 9.5 9.5 0 0 0 9.5-9.5A9.5 9.5 0 0 0 12 2.5 9.5 9.5 0 0 0 2.5 12Z"
     id="path862" />
  <path
     style="fill:#55d400;stroke-width:0.0290206"
     d="M 11.448609,21.470594 C 10.487449,21.393006 9.7696841,21.253823 9.0010523,20.995986 5.670141,19.878631 3.2024296,16.987835 2.643499,13.548441 2.4581357,12.407803 2.4904532,11.080293 2.7302958,9.9830713 3.099814,8.2926164 3.9497499,6.7005022 5.1530094,5.444804 7.4957064,3.0000107 10.939248,1.9900954 14.228714,2.7830984 c 3.512431,0.846754 6.268228,3.6647756 7.04099,7.1999729 0.177858,0.8136557 0.252795,1.9915167 0.179456,2.8206957 -0.33609,3.799871 -2.866662,7.000193 -6.486944,8.203798 -1.085886,0.361016 -2.488147,0.545809 -3.513607,0.463029 z m -0.870616,-5.535559 c 0.117259,-0.05595 0.786495,-0.711609 3.487637,-3.416887 l 3.342535,-3.3476522 0.04908,-0.171715 C 17.599653,8.5005881 17.25951,8.0197715 16.759371,8.0122813 16.383583,8.0066533 16.609635,7.8040626 13.269709,11.139759 L 10.244376,14.161262 8.9746671,12.895047 C 8.2763269,12.198629 7.6592503,11.604788 7.6033857,11.575402 c -0.1514826,-0.07968 -0.5258397,-0.07451 -0.6839625,0.0095 -0.3681821,0.195509 -0.5163619,0.657275 -0.3304757,1.029844 0.04223,0.08464 0.5490933,0.613471 1.5614574,1.62913 0.8244114,0.827094 1.5488872,1.543965 1.6099462,1.593047 0.2272283,0.182658 0.5574569,0.222301 0.8176419,0.09816 z"
     id="path939" />
</svg>
