<svg width="16" height="16" viewBox="0 0 16 16" fill="none" xmlns="http://www.w3.org/2000/svg">
<path d="M3.66732 4.66634C3.4021 4.66634 3.14775 4.56098 2.96021 4.37345C2.77267 4.18591 2.66732 3.93156 2.66732 3.66634C2.66732 3.40112 2.77267 3.14677 2.96021 2.95923C3.14775 2.7717 3.4021 2.66634 3.66732 2.66634C3.93253 2.66634 4.18689 2.7717 4.37442 2.95923C4.56196 3.14677 4.66732 3.40112 4.66732 3.66634C4.66732 3.93156 4.56196 4.18591 4.37442 4.37345C4.18689 4.56098 3.93253 4.66634 3.66732 4.66634ZM14.274 7.71967L8.27398 1.71967C8.03398 1.47967 7.70065 1.33301 7.33398 1.33301H2.66732C1.92732 1.33301 1.33398 1.92634 1.33398 2.66634V7.33301C1.33398 7.69967 1.48065 8.03301 1.72732 8.27301L7.72065 14.273C7.96732 14.513 8.30065 14.6663 8.66732 14.6663C9.03398 14.6663 9.36732 14.513 9.60732 14.273L14.274 9.60634C14.5207 9.36634 14.6673 9.03301 14.6673 8.66634C14.6673 8.29301 14.514 7.95967 14.274 7.71967Z" fill="#80CBC4"/>
</svg>
