<svg width="16" height="16" viewBox="0 0 16 16" fill="none" xmlns="http://www.w3.org/2000/svg">
<g clip-path="url(#clip0_265_2303)">
<path d="M10.6667 2.66699L6 5.36033V10.6403L10.6667 13.3337L15.3333 10.6403V5.36033M10.6667 4.20699L13.2 5.66699L10.6667 7.12699L8.14 5.66699M0 4.66699V6.00033H4.66667V4.66699M7.33333 6.74033L10 8.28033V11.407L7.33333 9.87366M14 6.74033V9.87366L11.3333 11.407V8.28033M1.33333 7.33366V8.66699H4.66667V7.33366M2.66667 10.0003V11.3337H4.66667V10.0003" fill="#82AAFF"/>
<path d="M15.4672 10.4003C15.4672 10.603 15.3552 10.779 15.1845 10.8697L10.9712 13.2377C10.8859 13.3017 10.7792 13.3337 10.6672 13.3337C10.5552 13.3337 10.4485 13.3017 10.3632 13.2377L6.14985 10.8697C5.97919 10.779 5.86719 10.603 5.86719 10.4003V5.60033C5.86719 5.39766 5.97919 5.22166 6.14985 5.13099L10.3632 2.76299C10.4485 2.69899 10.5552 2.66699 10.6672 2.66699C10.7792 2.66699 10.8859 2.69899 10.9712 2.76299L15.1845 5.13099C15.3552 5.22166 15.4672 5.39766 15.4672 5.60033V10.4003ZM10.6672 3.81366L7.48852 5.60033L10.6672 7.38699L13.8459 5.60033L10.6672 3.81366Z" fill="#82AAFF"/>
</g>
<defs>
<clipPath id="clip0_265_2303">
<rect width="16" height="16" fill="white"/>
</clipPath>
</defs>
</svg>
