<?xml version="1.0" encoding="UTF-8" standalone="no"?>
<svg
   viewBox="0 0 24 24"
   width="24"
   height="24"
   version="1.1"
   id="svg543"
   sodipodi:docname="obfuscated.svg"
   inkscape:version="1.2.2 (b0a8486541, 2022-12-01)"
   xmlns:inkscape="http://www.inkscape.org/namespaces/inkscape"
   xmlns:sodipodi="http://sodipodi.sourceforge.net/DTD/sodipodi-0.dtd"
   xmlns="http://www.w3.org/2000/svg"
   xmlns:svg="http://www.w3.org/2000/svg">
  <defs
     id="defs547" />
  <sodipodi:namedview
     id="namedview545"
     pagecolor="#ffffff"
     bordercolor="#000000"
     borderopacity="0.25"
     inkscape:showpageshadow="2"
     inkscape:pageopacity="0.0"
     inkscape:pagecheckerboard="0"
     inkscape:deskcolor="#d1d1d1"
     showgrid="false"
     inkscape:zoom="34.458333"
     inkscape:cx="12.01451"
     inkscape:cy="12.943168"
     inkscape:window-width="1280"
     inkscape:window-height="1007"
     inkscape:window-x="0"
     inkscape:window-y="0"
     inkscape:window-maximized="0"
     inkscape:current-layer="svg543" />
  <path
     d="M9.036 7.976a.75.75 0 0 0-1.06 1.06L10.939 12l-2.963 2.963a.75.75 0 1 0 1.06 1.06L12 13.06l2.963 2.964a.75.75 0 0 0 1.061-1.06L13.061 12l2.963-2.964a.75.75 0 1 0-1.06-1.06L12 10.939 9.036 7.976Z"
     id="path539" />
  <path
     d="M12 1c6.075 0 11 4.925 11 11s-4.925 11-11 11S1 18.075 1 12 5.925 1 12 1ZM2.5 12a9.5 9.5 0 0 0 9.5 9.5 9.5 9.5 0 0 0 9.5-9.5A9.5 9.5 0 0 0 12 2.5 9.5 9.5 0 0 0 2.5 12Z"
     id="path541" />
  <path
     style="fill:#000000;stroke-width:0.0290206;fill-opacity:0"
     d="M 11.448609,21.470594 C 10.487449,21.393006 9.7696841,21.253823 9.0010523,20.995986 5.670141,19.878631 3.2024296,16.987835 2.643499,13.548441 2.4581357,12.407803 2.4904532,11.080293 2.7302958,9.9830713 3.099814,8.2926164 3.9497499,6.7005022 5.1530094,5.444804 7.4957064,3.0000107 10.939248,1.9900954 14.228714,2.7830984 c 3.512431,0.846754 6.268228,3.6647756 7.04099,7.1999729 0.177858,0.8136557 0.252795,1.9915167 0.179456,2.8206957 -0.33609,3.799871 -2.866662,7.000193 -6.486944,8.203798 -1.085886,0.361016 -2.488147,0.545809 -3.513607,0.463029 z M 8.7463307,16.232221 c 0.1024835,-0.029 0.3420801,-0.255667 1.6869143,-1.59588 l 1.567465,-1.562078 1.523224,1.523939 c 1.002374,1.002843 1.56357,1.543576 1.641214,1.581369 0.156073,0.07597 0.473418,0.07753 0.637189,0.0031 0.144354,-0.06558 0.286247,-0.204698 0.369816,-0.362596 0.08394,-0.158608 0.08959,-0.50566 0.01069,-0.656864 -0.02915,-0.05586 -0.740575,-0.790448 -1.580942,-1.632407 l -1.52794,-1.530835 1.542451,-1.545344 C 15.46476,9.6046856 16.182244,8.8635734 16.21082,8.8077088 16.24666,8.7376378 16.26313,8.6386348 16.26391,8.4884827 16.26531,8.2247851 16.2038,8.0892646 16.002355,7.9119496 15.852351,7.7799116 15.727464,7.7343528 15.514854,7.7341102 15.189973,7.7337387 15.266484,7.6697402 13.566755,9.3636289 L 11.999289,10.925738 10.490576,9.4149704 C 9.6056384,8.5288286 8.9347365,7.8796809 8.8678807,7.8448919 8.8051911,7.8122708 8.6796708,7.7788498 8.588947,7.7706234 8.1477008,7.7306124 7.7746015,8.0615156 7.7680716,8.4986606 7.7629291,8.8429413 7.7011795,8.7681858 9.3838741,10.454788 l 1.5418959,1.545478 -1.5423182,1.545212 c -0.8482752,0.849866 -1.5661692,1.590919 -1.59532,1.646783 -0.078854,0.151116 -0.07325,0.49826 0.010602,0.656683 0.077141,0.145745 0.2906084,0.339041 0.4203248,0.380606 0.13115,0.04202 0.3836807,0.0433 0.5272721,0.0027 z"
     id="path618" />
  <path
     style="fill:#000000;fill-opacity:0;stroke-width:0.0290206"
     d="M 11.419589,21.471834 C 8.4006335,21.254531 5.7454059,19.715363 4.0911096,17.2237 3.2705586,15.987805 2.7813473,14.658217 2.5789238,13.113852 2.5172495,12.643316 2.509158,11.460517 2.5644547,10.998791 2.7659805,9.3160539 3.3155702,7.8662957 4.259382,6.5277556 4.8379984,5.7071457 5.6498336,4.8875615 6.4570738,4.3090869 7.7786014,3.3620698 9.2280842,2.7953687 10.882709,2.5788063 c 0.475885,-0.062285 1.656265,-0.07045 2.1185,-0.014654 2.240041,0.2703936 4.166714,1.1958664 5.706292,2.741004 1.511949,1.5174088 2.430365,3.4050614 2.713695,5.5775527 0.06795,0.521009 0.06832,1.681944 7.11e-4,2.220072 -0.19073,1.518087 -0.691974,2.883142 -1.513188,4.120919 -1.548007,2.333238 -3.989386,3.843909 -6.776917,4.193405 -0.354208,0.04441 -1.393885,0.07764 -1.712213,0.05473 z M 8.8077388,16.205961 c 0.099283,-0.04469 0.4976161,-0.42539 1.6614252,-1.587866 l 1.530833,-1.529079 1.516325,1.514566 c 1.152251,1.150914 1.547682,1.528682 1.646919,1.573356 0.276501,0.124472 0.678029,0.05061 0.876161,-0.161176 0.196515,-0.210056 0.257258,-0.586573 0.137536,-0.852521 -0.04467,-0.09924 -0.422442,-0.494668 -1.573356,-1.646919 l -1.514566,-1.516325 1.529079,-1.530833 c 1.162476,-1.1638091 1.543173,-1.5621427 1.587866,-1.6614252 0.03961,-0.087996 0.05879,-0.192121 0.05879,-0.3192261 0,-0.3109628 -0.141912,-0.5454393 -0.411392,-0.6797267 C 15.66048,7.712671 15.386596,7.7065611 15.192265,7.79404 15.092985,7.838732 14.694649,8.2194297 13.53084,9.3819058 L 12.000003,10.910984 10.483678,9.3980352 C 9.6496986,8.5659131 8.9217487,7.862176 8.8660112,7.8341752 8.8102741,7.8061744 8.6791905,7.7771486 8.5747145,7.7696732 c -0.15297,-0.010945 -0.2192793,-9.751e-4 -0.3405568,0.051196 -0.1820866,0.078331 -0.3566,0.2599664 -0.4270749,0.4445029 -0.062608,0.1639363 -0.049555,0.4479886 0.027651,0.6017198 0.027694,0.055143 0.7311796,0.7826072 1.5633017,1.6165871 l 1.5129485,1.516325 -1.5290784,1.530833 c -1.1624761,1.163809 -1.5431736,1.562143 -1.5878658,1.661424 -0.039612,0.088 -0.058787,0.192121 -0.058787,0.319226 0,0.310963 0.1419126,0.54544 0.4113922,0.679727 0.1928791,0.09612 0.4667632,0.102226 0.6610938,0.01475 z"
     id="path7621" />
  <path
     style="fill:#bc245c;fill-opacity:1;stroke-width:0.0290206"
     d="M 11.419589,21.471834 C 8.4006335,21.254531 5.7454059,19.715363 4.0911096,17.2237 3.2705586,15.987805 2.7813473,14.658217 2.5789238,13.113852 2.5172495,12.643316 2.509158,11.460517 2.5644547,10.998791 2.7659805,9.3160539 3.3155702,7.8662957 4.259382,6.5277556 4.8379984,5.7071457 5.6498336,4.8875615 6.4570738,4.3090869 7.7786014,3.3620698 9.2280842,2.7953687 10.882709,2.5788063 c 0.475885,-0.062285 1.656265,-0.07045 2.1185,-0.014654 2.240041,0.2703936 4.166714,1.1958664 5.706292,2.741004 1.511949,1.5174088 2.430365,3.4050614 2.713695,5.5775527 0.06795,0.521009 0.06832,1.681944 7.11e-4,2.220072 -0.19073,1.518087 -0.691974,2.883142 -1.513188,4.120919 -1.548007,2.333238 -3.989386,3.843909 -6.776917,4.193405 -0.354208,0.04441 -1.393885,0.07764 -1.712213,0.05473 z M 8.8077388,16.205961 c 0.099283,-0.04469 0.4976161,-0.42539 1.6614252,-1.587866 l 1.530833,-1.529079 1.516325,1.514566 c 1.152251,1.150914 1.547682,1.528682 1.646919,1.573356 0.276501,0.124472 0.678029,0.05061 0.876161,-0.161176 0.196515,-0.210056 0.257258,-0.586573 0.137536,-0.852521 -0.04467,-0.09924 -0.422442,-0.494668 -1.573356,-1.646919 l -1.514566,-1.516325 1.529079,-1.530833 c 1.162476,-1.1638091 1.543173,-1.5621427 1.587866,-1.6614252 0.03961,-0.087996 0.05879,-0.192121 0.05879,-0.3192261 0,-0.3109628 -0.141912,-0.5454393 -0.411392,-0.6797267 C 15.66048,7.712671 15.386596,7.7065611 15.192265,7.79404 15.092985,7.838732 14.694649,8.2194297 13.53084,9.3819058 L 12.000003,10.910984 10.483678,9.3980352 C 9.6496986,8.5659131 8.9217487,7.862176 8.8660112,7.8341752 8.8102741,7.8061744 8.6791905,7.7771486 8.5747145,7.7696732 c -0.15297,-0.010945 -0.2192793,-9.751e-4 -0.3405568,0.051196 -0.1820866,0.078331 -0.3566,0.2599664 -0.4270749,0.4445029 -0.062608,0.1639363 -0.049555,0.4479886 0.027651,0.6017198 0.027694,0.055143 0.7311796,0.7826072 1.5633017,1.6165871 l 1.5129485,1.516325 -1.5290784,1.530833 c -1.1624761,1.163809 -1.5431736,1.562143 -1.5878658,1.661424 -0.039612,0.088 -0.058787,0.192121 -0.058787,0.319226 0,0.310963 0.1419126,0.54544 0.4113922,0.679727 0.1928791,0.09612 0.4667632,0.102226 0.6610938,0.01475 z"
     id="path7623" />
  <path
     style="fill:#bc245c;fill-opacity:1;stroke-width:0.0290206"
     d="M 10.96977,21.415229 C 9.3138991,21.207627 7.7888422,20.621222 6.5006046,19.696774 4.571405,18.312367 3.1996827,16.207935 2.7321284,13.915357 2.574372,13.141823 2.5564945,12.945384 2.5564952,11.98549 c 6e-7,-0.787028 0.00802,-0.950071 0.064101,-1.302551 C 2.8978334,8.9403268 3.5035693,7.5246544 4.5529142,6.1668975 4.8175442,5.8244904 5.6901545,4.9333824 6.0217654,4.6669092 7.4082576,3.552764 8.9467955,2.8845626 10.752116,2.6124737 c 0.419239,-0.063186 1.571232,-0.090084 2.046515,-0.047785 1.81607,0.1616256 3.559077,0.8456614 5.00548,1.9643802 0.398186,0.3079762 1.267542,1.1649315 1.573177,1.5507374 1.041643,1.3148727 1.676112,2.734897 1.965151,4.3982627 0.114834,0.660848 0.149135,1.563488 0.08828,2.323037 -0.145253,1.812883 -0.869625,3.627005 -2.033868,5.093631 -0.280981,0.353958 -0.923054,1.017342 -1.274511,1.316811 -1.351093,1.151241 -3.002259,1.894412 -4.801904,2.161283 -0.556319,0.0825 -1.845377,0.105747 -2.350665,0.0424 z M 8.8601311,16.190476 c 0.1143604,-0.07472 0.5691006,-0.515101 1.9264079,-1.865565 l 1.209755,-1.203656 1.476604,1.463557 c 0.812132,0.804955 1.533419,1.502733 1.60286,1.550617 0.11894,0.08202 0.142504,0.08706 0.406656,0.08706 0.261471,0 0.289987,-0.0059 0.42241,-0.08783 0.08793,-0.05438 0.175457,-0.141911 0.229838,-0.229838 0.0819,-0.132423 0.08783,-0.160939 0.08783,-0.42241 0,-0.264152 -0.005,-0.287716 -0.08706,-0.406656 -0.04788,-0.06944 -0.74484,-0.7899 -1.548792,-1.601019 l -1.461731,-1.474763 1.476241,-1.489205 c 0.811933,-0.8190629 1.515419,-1.5459773 1.563303,-1.6153654 0.0765,-0.1108507 0.08831,-0.1556167 0.09733,-0.3689047 0.0091,-0.215181 0.0016,-0.2604482 -0.06601,-0.3986536 C 16.067633,7.865955 15.832506,7.728857 15.511487,7.728857 c -0.357155,0 -0.256788,-0.084918 -2.285361,1.9335671 L 12.000015,10.882437 10.904482,9.7927273 C 9.1973412,8.0946611 8.9170375,7.8299353 8.7883516,7.794202 8.6145388,7.7459376 8.344477,7.7571993 8.2098829,7.8183239 8.0576944,7.8874392 7.8874392,8.0576944 7.8183239,8.2098829 7.7518711,8.3562089 7.7449445,8.6793313 7.8051706,8.8234726 7.8529178,8.937748 8.235627,9.3384151 9.7911482,10.90264 l 1.0876068,1.093692 -1.4780717,1.491051 c -0.8129392,0.820078 -1.5172492,1.547823 -1.5651331,1.617211 -0.076497,0.110851 -0.088307,0.155617 -0.097328,0.368905 -0.0091,0.215181 -0.0016,0.260448 0.066013,0.398654 0.071978,0.147118 0.1753433,0.251077 0.3323068,0.334214 0.1720225,0.09111 0.5733086,0.0823 0.723589,-0.01589 z"
     id="path8177" />
  <path
     style="fill:#bc245c;fill-opacity:1;stroke-width:0.0290206"
     d="M 10.984281,21.418967 C 8.6145995,21.109945 6.673406,20.132624 5.0850075,18.448897 4.091356,17.395612 3.3054268,16.013247 2.9005844,14.606734 2.7917369,14.228573 2.6508232,13.550904 2.5938891,13.131802 2.534083,12.691558 2.5418859,11.200238 2.6062642,10.766626 2.8707004,8.9855501 3.5266404,7.4581622 4.6127976,6.0943168 4.8923253,5.7433248 5.5049894,5.1106024 5.8621524,4.8040591 7.2499365,3.6129614 8.969235,2.8537788 10.868198,2.5935631 c 0.382039,-0.052351 1.929672,-0.05281 2.278114,-6.754e-4 1.969123,0.2946223 3.613678,1.0234255 4.98988,2.2113218 1.797391,1.5514548 2.89016,3.5505504 3.251313,5.9479065 0.06306,0.418613 0.08823,1.452676 0.04843,1.989691 -0.126276,1.70382 -0.737931,3.364457 -1.76303,4.786609 -0.680399,0.943939 -1.701562,1.904571 -2.652354,2.495129 -1.135058,0.705011 -2.473181,1.185314 -3.807664,1.366717 -0.464806,0.06318 -1.829438,0.08076 -2.228611,0.0287 z M 8.7934706,16.22426 c 0.1177544,-0.0492 0.495923,-0.410076 2.0529604,-1.95908 l 1.153566,-1.147613 1.124548,1.118548 c 1.55022,1.541948 1.936232,1.910351 2.052615,1.958979 0.133966,0.05598 0.436197,0.05311 0.608991,-0.0058 0.178589,-0.06085 0.34233,-0.224592 0.403181,-0.403181 0.05831,-0.171115 0.0619,-0.474643 0.0072,-0.605632 -0.04905,-0.117396 -0.458778,-0.547329 -1.945514,-2.041462 L 13.117567,12 14.25047,10.860943 C 15.465729,9.6390826 16.012644,9.079211 16.131736,8.9351118 16.239539,8.8046702 16.266102,8.7140915 16.265384,8.4793683 16.264581,8.2163846 16.203664,8.0764063 16.019456,7.9142597 15.852413,7.7672227 15.711777,7.7248475 15.4369,7.7387283 c -0.193651,0.00978 -0.217642,0.018755 -0.376053,0.1406952 -0.09306,0.071638 -0.820665,0.7757749 -1.616892,1.5647498 L 11.99627,10.878673 10.97516,9.862345 C 9.3394677,8.2343124 8.909105,7.8277439 8.7849995,7.7932765 8.6138531,7.745744 8.3433133,7.7575673 8.2128174,7.8182821 8.0675753,7.8858573 7.8670317,8.0915788 7.8079035,8.2336507 7.7566311,8.3568459 7.7482561,8.678122 7.793233,8.7964205 7.8433939,8.9283538 8.1807056,9.2832609 9.8795277,10.991545 l 1.0028873,1.008473 -1.1333611,1.139048 c -1.507971,1.515537 -1.9256961,1.953498 -1.9743888,2.070036 -0.060638,0.145126 -0.051648,0.494574 0.016364,0.636122 0.089265,0.185779 0.2590346,0.340504 0.4302439,0.392114 0.1306396,0.03938 0.4649337,0.03174 0.5721978,-0.01308 z"
     id="path8179" />
  <path
     style="fill:#bc245c;fill-opacity:1;stroke-width:0.0290206"
     d="M 10.984281,21.41931 C 8.6068373,21.111347 6.5851136,20.086308 5.0459429,18.408498 3.7139035,16.956477 2.896038,15.220794 2.6073898,13.233374 2.5333889,12.723857 2.5333779,11.222973 2.6073717,10.752116 2.868215,9.0922474 3.4228248,7.7129569 4.3343997,6.4570738 4.9366414,5.627361 5.8385897,4.7475367 6.6602177,4.1883058 7.6663792,3.5034744 8.7806368,3.0210866 9.9607302,2.7594378 10.756355,2.5830329 11.013481,2.5573147 12,2.5554669 c 0.942787,-0.00177 1.069926,0.00939 1.830822,0.1606564 1.466139,0.2914678 2.936642,0.9714261 4.056884,1.8758966 0.351825,0.2840599 1.015092,0.928414 1.307412,1.2701325 1.179683,1.3790333 1.921768,3.0347242 2.194291,4.8957616 0.06131,0.418686 0.08599,1.512561 0.04553,2.017823 -0.134802,1.683295 -0.741781,3.331682 -1.739374,4.723658 -0.616518,0.86025 -1.492136,1.71986 -2.355783,2.312715 -1.185228,0.813607 -2.657567,1.380493 -4.091898,1.575479 -0.47269,0.06426 -1.86211,0.08373 -2.263603,0.03172 z M 8.7559789,16.235744 C 8.8804005,16.201189 9.3107434,15.794462 10.962515,14.1503 L 12,13.117594 l 1.037485,1.031785 c 1.503826,1.495565 2.033117,2.001192 2.142842,2.047038 0.127168,0.05313 0.399319,0.05169 0.583821,-0.0031 0.3491,-0.103671 0.54213,-0.502308 0.454762,-0.939152 -0.02786,-0.139289 -0.269242,-0.401095 -1.737967,-1.885001 l -1.359232,-1.373282 1.043593,-1.049934 c 1.883941,-1.8953884 2.051861,-2.0753017 2.083195,-2.2319726 0.03119,-0.1559405 0.01864,-0.3859607 -0.02862,-0.5246638 -0.05594,-0.1641682 -0.271604,-0.3702684 -0.440363,-0.4208297 -0.180952,-0.054214 -0.45576,-0.043542 -0.585695,0.022745 -0.135892,0.069327 -0.595075,0.5068083 -2.05555,1.9583994 -0.610952,0.6072367 -1.121501,1.1040657 -1.134551,1.1040657 -0.01305,0 -0.597099,-0.566667 -1.297884,-1.2592595 C 9.1993756,8.1055804 8.877423,7.8074072 8.748446,7.7816117 8.5616529,7.7442533 8.335355,7.7617204 8.2081103,7.8233186 c -0.157081,0.076042 -0.3764419,0.3175513 -0.415211,0.4571353 -0.03789,0.1364166 -0.037865,0.3668529 5.8e-5,0.5033784 0.03278,0.1180237 0.4047503,0.5114458 2.1024879,2.2237447 0.5270358,0.531555 0.9582458,0.978607 0.9582458,0.993449 0,0.01484 -0.483852,0.513668 -1.0752262,1.108505 -1.4702647,1.478872 -1.9380545,1.968792 -1.9955509,2.089956 -0.056503,0.119072 -0.064946,0.411702 -0.016955,0.587696 0.038762,0.142151 0.2971116,0.405374 0.4375957,0.44585 0.1311109,0.03778 0.4210491,0.0392 0.5524278,0.0027 z"
     id="path8917" />
</svg>
