<svg width="16" height="16" viewBox="0 0 16 16" fill="none" xmlns="http://www.w3.org/2000/svg">
<path d="M7.99935 9.33366C7.25935 9.33366 6.66602 8.73366 6.66602 8.00033C6.66602 7.26033 7.25935 6.66699 7.99935 6.66699C8.73935 6.66699 9.33268 7.26033 9.33268 8.00033C9.33268 8.35395 9.19221 8.69309 8.94216 8.94313C8.69211 9.19318 8.35297 9.33366 7.99935 9.33366ZM7.99935 2.66699C6.58486 2.66699 5.22831 3.2289 4.22811 4.22909C3.22792 5.22928 2.66602 6.58584 2.66602 8.00033C2.66602 9.41481 3.22792 10.7714 4.22811 11.7716C5.22831 12.7718 6.58486 13.3337 7.99935 13.3337C9.41384 13.3337 10.7704 12.7718 11.7706 11.7716C12.7708 10.7714 13.3327 9.41481 13.3327 8.00033C13.3327 6.58584 12.7708 5.22928 11.7706 4.22909C10.7704 3.2289 9.41384 2.66699 7.99935 2.66699Z" fill="#FDD835"/>
</svg>
